<?xml version="1.0" encoding="utf-8" standalone="no"?>
<!DOCTYPE svg PUBLIC "-//W3C//DTD SVG 1.1//EN"
  "http://www.w3.org/Graphics/SVG/1.1/DTD/svg11.dtd">
<svg xmlns:xlink="http://www.w3.org/1999/xlink" width="507.2pt" height="480.0775pt" viewBox="0 0 507.2 480.0775" xmlns="http://www.w3.org/2000/svg" version="1.1">
 <metadata>
  <rdf:RDF xmlns:dc="http://purl.org/dc/elements/1.1/" xmlns:cc="http://creativecommons.org/ns#" xmlns:rdf="http://www.w3.org/1999/02/22-rdf-syntax-ns#">
   <cc:Work>
    <dc:type rdf:resource="http://purl.org/dc/dcmitype/StillImage"/>
    <dc:date>2026-01-24T13:56:06.119975</dc:date>
    <dc:format>image/svg+xml</dc:format>
    <dc:creator>
     <cc:Agent>
      <dc:title>Matplotlib v3.10.7, https://matplotlib.org/</dc:title>
     </cc:Agent>
    </dc:creator>
   </cc:Work>
  </rdf:RDF>
 </metadata>
 <defs>
  <style type="text/css">*{stroke-linejoin: round; stroke-linecap: butt}</style>
 </defs>
 <g id="figure_1">
  <g id="patch_1">
   <path d="M 0 480.0775 
L 507.2 480.0775 
L 507.2 0 
L 0 0 
z
" style="fill: #ffffff"/>
  </g>
  <g id="axes_1">
   <g id="patch_2">
    <path d="M 7.2 472.8775 
L 500 472.8775 
L 500 29.3575 
L 7.2 29.3575 
z
" style="fill: #ffffff"/>
   </g>
   <g id="patch_3">
    <path d="M 288.096 251.1175 
C 288.096 248.102864 287.700822 245.101193 286.920577 242.189278 
C 286.140332 239.277364 284.98173 236.480251 283.474412 233.8695 
" clip-path="url(#p931d5aff78)" style="fill: none; stroke-dasharray: 5.55,2.4; stroke-dashoffset: 0; stroke: #ea580c; stroke-width: 1.5; stroke-linejoin: miter"/>
   </g>
   <g id="matplotlib.axis_1"/>
   <g id="matplotlib.axis_2"/>
   <g id="line2d_1">
    <path d="M 253.6 251.1175 
L 360.29433 251.1175 
" clip-path="url(#p931d5aff78)" style="fill: none; stroke-dasharray: 5.55,2.4; stroke-dashoffset: 0; stroke: #dc2626; stroke-opacity: 0.5; stroke-width: 1.5"/>
   </g>
   <g id="line2d_2">
    <path d="M 360.29433 251.1175 
L 360.29433 189.5175 
" clip-path="url(#p931d5aff78)" style="fill: none; stroke-dasharray: 5.55,2.4; stroke-dashoffset: 0; stroke: #dc2626; stroke-opacity: 0.5; stroke-width: 1.5"/>
   </g>
   <g id="patch_4">
    <path d="M 83.120496 398.9575 
Q 125.47339 398.9575 166.149233 398.9575 
" style="fill: none; stroke: #6b7280; stroke-width: 1.5; stroke-linecap: round"/>
    <path d="M 162.149233 396.9575 
L 166.149233 398.9575 
L 162.149233 400.9575 
" style="fill: none; stroke: #6b7280; stroke-width: 1.5; stroke-linecap: round"/>
   </g>
   <g id="text_1">
    <!-- x -->
    <g style="fill: #6b7280" transform="translate(179.68 398.9575) scale(0.11 -0.11)">
     <defs>
      <path id="DejaVuSans-78" d="M 3513 3500 
L 2247 1797 
L 3578 0 
L 2900 0 
L 1881 1375 
L 863 0 
L 184 0 
L 1544 1831 
L 300 3500 
L 978 3500 
L 1906 2253 
L 2834 3500 
L 3513 3500 
z
" transform="scale(0.015625)"/>
     </defs>
     <use xlink:href="#DejaVuSans-78"/>
    </g>
   </g>
   <g id="patch_5">
    <path d="M 81.12 396.957004 
Q 81.12 354.60411 81.12 313.928267 
" style="fill: none; stroke: #6b7280; stroke-width: 1.5; stroke-linecap: round"/>
    <path d="M 79.12 317.928267 
L 81.12 313.928267 
L 83.12 317.928267 
" style="fill: none; stroke: #6b7280; stroke-width: 1.5; stroke-linecap: round"/>
   </g>
   <g id="text_2">
    <!-- y -->
    <g style="fill: #6b7280" transform="translate(81.12 300.3975) scale(0.11 -0.11)">
     <defs>
      <path id="DejaVuSans-79" d="M 2059 -325 
Q 1816 -950 1584 -1140 
Q 1353 -1331 966 -1331 
L 506 -1331 
L 506 -850 
L 844 -850 
Q 1081 -850 1212 -737 
Q 1344 -625 1503 -206 
L 1606 56 
L 191 3500 
L 800 3500 
L 1894 763 
L 2988 3500 
L 3597 3500 
L 2059 -325 
z
" transform="scale(0.015625)"/>
     </defs>
     <use xlink:href="#DejaVuSans-79"/>
    </g>
   </g>
   <g id="text_3">
    <!-- $F_{1x}$ -->
    <g style="fill: #dc2626; opacity: 0.7" transform="translate(365.22233 268.3655) scale(0.11 -0.11)">
     <defs>
      <path id="DejaVuSans-Oblique-46" d="M 1081 4666 
L 3756 4666 
L 3653 4134 
L 1606 4134 
L 1338 2759 
L 3188 2759 
L 3084 2228 
L 1234 2228 
L 800 0 
L 172 0 
L 1081 4666 
z
" transform="scale(0.015625)"/>
      <path id="DejaVuSans-31" d="M 794 531 
L 1825 531 
L 1825 4091 
L 703 3866 
L 703 4441 
L 1819 4666 
L 2450 4666 
L 2450 531 
L 3481 531 
L 3481 0 
L 794 0 
L 794 531 
z
" transform="scale(0.015625)"/>
      <path id="DejaVuSans-Oblique-78" d="M 3841 3500 
L 2234 1784 
L 3219 0 
L 2559 0 
L 1819 1388 
L 531 0 
L -166 0 
L 1556 1844 
L 641 3500 
L 1300 3500 
L 1972 2234 
L 3144 3500 
L 3841 3500 
z
" transform="scale(0.015625)"/>
     </defs>
     <use xlink:href="#DejaVuSans-Oblique-46" transform="translate(0 0.09375)"/>
     <use xlink:href="#DejaVuSans-31" transform="translate(57.519531 -16.3125) scale(0.7)"/>
     <use xlink:href="#DejaVuSans-Oblique-78" transform="translate(102.055664 -16.3125) scale(0.7)"/>
    </g>
   </g>
   <g id="text_4">
    <!-- $F_{1y}$ -->
    <g style="fill: #dc2626; opacity: 0.7" transform="translate(367.68633 220.3175) scale(0.11 -0.11)">
     <defs>
      <path id="DejaVuSans-Oblique-79" d="M 1588 -325 
Q 1188 -997 936 -1164 
Q 684 -1331 294 -1331 
L -159 -1331 
L -63 -850 
L 269 -850 
Q 509 -850 678 -719 
Q 847 -588 1056 -206 
L 1234 128 
L 459 3500 
L 1069 3500 
L 1650 819 
L 3256 3500 
L 3859 3500 
L 1588 -325 
z
" transform="scale(0.015625)"/>
     </defs>
     <use xlink:href="#DejaVuSans-Oblique-46" transform="translate(0 0.09375)"/>
     <use xlink:href="#DejaVuSans-31" transform="translate(57.519531 -16.3125) scale(0.7)"/>
     <use xlink:href="#DejaVuSans-Oblique-79" transform="translate(102.055664 -16.3125) scale(0.7)"/>
    </g>
   </g>
   <g id="text_5">
    <!-- $\theta$ -->
    <g style="fill: #ea580c" transform="translate(301.620907 240.950562) scale(0.14 -0.14)">
     <defs>
      <path id="DejaVuSans-Oblique-3b8" d="M 2913 2219 
L 925 2219 
Q 791 1284 928 888 
Q 1100 400 1566 400 
Q 2034 400 2391 891 
Q 2703 1322 2913 2219 
z
M 3009 2750 
Q 3094 3638 2984 3950 
Q 2813 4444 2353 4444 
Q 1875 4444 1525 3956 
Q 1250 3563 1034 2750 
L 3009 2750 
z
M 2444 4913 
Q 3194 4913 3494 4250 
Q 3794 3591 3566 2422 
Q 3341 1256 2781 594 
Q 2225 -72 1475 -72 
Q 722 -72 425 594 
Q 128 1256 353 2422 
Q 581 3591 1134 4250 
Q 1691 4913 2444 4913 
z
" transform="scale(0.015625)"/>
     </defs>
     <use xlink:href="#DejaVuSans-Oblique-3b8" transform="translate(0 0.234375)"/>
    </g>
   </g>
   <g id="text_6">
    <g id="patch_6">
     <path d="M 158.74 85.9575 
L 348.46 85.9575 
Q 352.06 85.9575 352.06 82.3575 
L 352.06 48.7095 
Q 352.06 45.1095 348.46 45.1095 
L 158.74 45.1095 
Q 155.14 45.1095 155.14 48.7095 
L 155.14 82.3575 
Q 155.14 85.9575 158.74 85.9575 
z
" style="fill: #ffffe0; opacity: 0.8; stroke: #000000; stroke-linejoin: miter"/>
    </g>
    <!-- $\sum F_x = F_{1x} - F_2 = F_1\cos\theta - F_2 = 0$ -->
    <g transform="translate(158.74 60.5895) scale(0.12 -0.12)">
     <defs>
      <path id="DejaVuSansDisplay-2211" d="M 244 6509 
L 5803 6509 
L 5803 5656 
L 1566 5656 
L 4534 2488 
L 1469 -888 
L 5919 -888 
L 5919 -1738 
L 109 -1738 
L 109 -1078 
L 3316 2463 
L 244 5728 
L 244 6509 
z
" transform="scale(0.015625)"/>
      <path id="DejaVuSans-3d" d="M 678 2906 
L 4684 2906 
L 4684 2381 
L 678 2381 
L 678 2906 
z
M 678 1631 
L 4684 1631 
L 4684 1100 
L 678 1100 
L 678 1631 
z
" transform="scale(0.015625)"/>
      <path id="DejaVuSans-2212" d="M 678 2272 
L 4684 2272 
L 4684 1741 
L 678 1741 
L 678 2272 
z
" transform="scale(0.015625)"/>
      <path id="DejaVuSans-32" d="M 1228 531 
L 3431 531 
L 3431 0 
L 469 0 
L 469 531 
Q 828 903 1448 1529 
Q 2069 2156 2228 2338 
Q 2531 2678 2651 2914 
Q 2772 3150 2772 3378 
Q 2772 3750 2511 3984 
Q 2250 4219 1831 4219 
Q 1534 4219 1204 4116 
Q 875 4013 500 3803 
L 500 4441 
Q 881 4594 1212 4672 
Q 1544 4750 1819 4750 
Q 2544 4750 2975 4387 
Q 3406 4025 3406 3419 
Q 3406 3131 3298 2873 
Q 3191 2616 2906 2266 
Q 2828 2175 2409 1742 
Q 1991 1309 1228 531 
z
" transform="scale(0.015625)"/>
      <path id="DejaVuSans-63" d="M 3122 3366 
L 3122 2828 
Q 2878 2963 2633 3030 
Q 2388 3097 2138 3097 
Q 1578 3097 1268 2742 
Q 959 2388 959 1747 
Q 959 1106 1268 751 
Q 1578 397 2138 397 
Q 2388 397 2633 464 
Q 2878 531 3122 666 
L 3122 134 
Q 2881 22 2623 -34 
Q 2366 -91 2075 -91 
Q 1284 -91 818 406 
Q 353 903 353 1747 
Q 353 2603 823 3093 
Q 1294 3584 2113 3584 
Q 2378 3584 2631 3529 
Q 2884 3475 3122 3366 
z
" transform="scale(0.015625)"/>
      <path id="DejaVuSans-6f" d="M 1959 3097 
Q 1497 3097 1228 2736 
Q 959 2375 959 1747 
Q 959 1119 1226 758 
Q 1494 397 1959 397 
Q 2419 397 2687 759 
Q 2956 1122 2956 1747 
Q 2956 2369 2687 2733 
Q 2419 3097 1959 3097 
z
M 1959 3584 
Q 2709 3584 3137 3096 
Q 3566 2609 3566 1747 
Q 3566 888 3137 398 
Q 2709 -91 1959 -91 
Q 1206 -91 779 398 
Q 353 888 353 1747 
Q 353 2609 779 3096 
Q 1206 3584 1959 3584 
z
" transform="scale(0.015625)"/>
      <path id="DejaVuSans-73" d="M 2834 3397 
L 2834 2853 
Q 2591 2978 2328 3040 
Q 2066 3103 1784 3103 
Q 1356 3103 1142 2972 
Q 928 2841 928 2578 
Q 928 2378 1081 2264 
Q 1234 2150 1697 2047 
L 1894 2003 
Q 2506 1872 2764 1633 
Q 3022 1394 3022 966 
Q 3022 478 2636 193 
Q 2250 -91 1575 -91 
Q 1294 -91 989 -36 
Q 684 19 347 128 
L 347 722 
Q 666 556 975 473 
Q 1284 391 1588 391 
Q 1994 391 2212 530 
Q 2431 669 2431 922 
Q 2431 1156 2273 1281 
Q 2116 1406 1581 1522 
L 1381 1569 
Q 847 1681 609 1914 
Q 372 2147 372 2553 
Q 372 3047 722 3315 
Q 1072 3584 1716 3584 
Q 2034 3584 2315 3537 
Q 2597 3491 2834 3397 
z
" transform="scale(0.015625)"/>
      <path id="DejaVuSans-30" d="M 2034 4250 
Q 1547 4250 1301 3770 
Q 1056 3291 1056 2328 
Q 1056 1369 1301 889 
Q 1547 409 2034 409 
Q 2525 409 2770 889 
Q 3016 1369 3016 2328 
Q 3016 3291 2770 3770 
Q 2525 4250 2034 4250 
z
M 2034 4750 
Q 2819 4750 3233 4129 
Q 3647 3509 3647 2328 
Q 3647 1150 3233 529 
Q 2819 -91 2034 -91 
Q 1250 -91 836 529 
Q 422 1150 422 2328 
Q 422 3509 836 4129 
Q 1250 4750 2034 4750 
z
" transform="scale(0.015625)"/>
     </defs>
     <use xlink:href="#DejaVuSansDisplay-2211" transform="translate(0 0.296875)"/>
     <use xlink:href="#DejaVuSans-Oblique-46" transform="translate(95.263672 0.296875)"/>
     <use xlink:href="#DejaVuSans-Oblique-78" transform="translate(152.783203 -16.109375) scale(0.7)"/>
     <use xlink:href="#DejaVuSans-3d" transform="translate(216.425781 0.296875)"/>
     <use xlink:href="#DejaVuSans-Oblique-46" transform="translate(319.697266 0.296875)"/>
     <use xlink:href="#DejaVuSans-31" transform="translate(377.216797 -16.109375) scale(0.7)"/>
     <use xlink:href="#DejaVuSans-Oblique-78" transform="translate(421.75293 -16.109375) scale(0.7)"/>
     <use xlink:href="#DejaVuSans-2212" transform="translate(485.395508 0.296875)"/>
     <use xlink:href="#DejaVuSans-Oblique-46" transform="translate(588.666992 0.296875)"/>
     <use xlink:href="#DejaVuSans-32" transform="translate(646.186523 -16.109375) scale(0.7)"/>
     <use xlink:href="#DejaVuSans-3d" transform="translate(712.939453 0.296875)"/>
     <use xlink:href="#DejaVuSans-Oblique-46" transform="translate(816.210938 0.296875)"/>
     <use xlink:href="#DejaVuSans-31" transform="translate(873.730469 -16.109375) scale(0.7)"/>
     <use xlink:href="#DejaVuSans-63" transform="translate(921.000977 0.296875)"/>
     <use xlink:href="#DejaVuSans-6f" transform="translate(975.981445 0.296875)"/>
     <use xlink:href="#DejaVuSans-73" transform="translate(1037.163086 0.296875)"/>
     <use xlink:href="#DejaVuSans-Oblique-3b8" transform="translate(1105.498372 0.296875)"/>
     <use xlink:href="#DejaVuSans-2212" transform="translate(1186.162434 0.296875)"/>
     <use xlink:href="#DejaVuSans-Oblique-46" transform="translate(1289.433918 0.296875)"/>
     <use xlink:href="#DejaVuSans-32" transform="translate(1346.95345 -16.109375) scale(0.7)"/>
     <use xlink:href="#DejaVuSans-3d" transform="translate(1413.706379 0.296875)"/>
     <use xlink:href="#DejaVuSans-30" transform="translate(1516.977864 0.296875)"/>
    </g>
    <!-- $\sum F_y = F_{1y} - F_3 = F_1\sin\theta - F_3 = 0$ -->
    <g transform="translate(160.24 78.6375) scale(0.12 -0.12)">
     <defs>
      <path id="DejaVuSans-33" d="M 2597 2516 
Q 3050 2419 3304 2112 
Q 3559 1806 3559 1356 
Q 3559 666 3084 287 
Q 2609 -91 1734 -91 
Q 1441 -91 1130 -33 
Q 819 25 488 141 
L 488 750 
Q 750 597 1062 519 
Q 1375 441 1716 441 
Q 2309 441 2620 675 
Q 2931 909 2931 1356 
Q 2931 1769 2642 2001 
Q 2353 2234 1838 2234 
L 1294 2234 
L 1294 2753 
L 1863 2753 
Q 2328 2753 2575 2939 
Q 2822 3125 2822 3475 
Q 2822 3834 2567 4026 
Q 2313 4219 1838 4219 
Q 1578 4219 1281 4162 
Q 984 4106 628 3988 
L 628 4550 
Q 988 4650 1302 4700 
Q 1616 4750 1894 4750 
Q 2613 4750 3031 4423 
Q 3450 4097 3450 3541 
Q 3450 3153 3228 2886 
Q 3006 2619 2597 2516 
z
" transform="scale(0.015625)"/>
      <path id="DejaVuSans-69" d="M 603 3500 
L 1178 3500 
L 1178 0 
L 603 0 
L 603 3500 
z
M 603 4863 
L 1178 4863 
L 1178 4134 
L 603 4134 
L 603 4863 
z
" transform="scale(0.015625)"/>
      <path id="DejaVuSans-6e" d="M 3513 2113 
L 3513 0 
L 2938 0 
L 2938 2094 
Q 2938 2591 2744 2837 
Q 2550 3084 2163 3084 
Q 1697 3084 1428 2787 
Q 1159 2491 1159 1978 
L 1159 0 
L 581 0 
L 581 3500 
L 1159 3500 
L 1159 2956 
Q 1366 3272 1645 3428 
Q 1925 3584 2291 3584 
Q 2894 3584 3203 3211 
Q 3513 2838 3513 2113 
z
" transform="scale(0.015625)"/>
     </defs>
     <use xlink:href="#DejaVuSansDisplay-2211" transform="translate(0 0.296875)"/>
     <use xlink:href="#DejaVuSans-Oblique-46" transform="translate(95.263672 0.296875)"/>
     <use xlink:href="#DejaVuSans-Oblique-79" transform="translate(152.783203 -16.109375) scale(0.7)"/>
     <use xlink:href="#DejaVuSans-3d" transform="translate(216.425781 0.296875)"/>
     <use xlink:href="#DejaVuSans-Oblique-46" transform="translate(319.697266 0.296875)"/>
     <use xlink:href="#DejaVuSans-31" transform="translate(377.216797 -16.109375) scale(0.7)"/>
     <use xlink:href="#DejaVuSans-Oblique-79" transform="translate(421.75293 -16.109375) scale(0.7)"/>
     <use xlink:href="#DejaVuSans-2212" transform="translate(485.395508 0.296875)"/>
     <use xlink:href="#DejaVuSans-Oblique-46" transform="translate(588.666992 0.296875)"/>
     <use xlink:href="#DejaVuSans-33" transform="translate(646.186523 -16.109375) scale(0.7)"/>
     <use xlink:href="#DejaVuSans-3d" transform="translate(712.939453 0.296875)"/>
     <use xlink:href="#DejaVuSans-Oblique-46" transform="translate(816.210938 0.296875)"/>
     <use xlink:href="#DejaVuSans-31" transform="translate(873.730469 -16.109375) scale(0.7)"/>
     <use xlink:href="#DejaVuSans-73" transform="translate(921.000977 0.296875)"/>
     <use xlink:href="#DejaVuSans-69" transform="translate(973.100586 0.296875)"/>
     <use xlink:href="#DejaVuSans-6e" transform="translate(1000.883789 0.296875)"/>
     <use xlink:href="#DejaVuSans-Oblique-3b8" transform="translate(1080.498372 0.296875)"/>
     <use xlink:href="#DejaVuSans-2212" transform="translate(1161.162434 0.296875)"/>
     <use xlink:href="#DejaVuSans-Oblique-46" transform="translate(1264.433918 0.296875)"/>
     <use xlink:href="#DejaVuSans-33" transform="translate(1321.95345 -16.109375) scale(0.7)"/>
     <use xlink:href="#DejaVuSans-3d" transform="translate(1388.706379 0.296875)"/>
     <use xlink:href="#DejaVuSans-30" transform="translate(1491.977864 0.296875)"/>
    </g>
   </g>
   <g id="text_7">
    <g id="patch_7">
     <path d="M 146.415 431.5275 
L 360.785 431.5275 
Q 364.685 431.5275 364.685 427.6275 
L 364.685 410.3375 
Q 364.685 406.4375 360.785 406.4375 
L 146.415 406.4375 
Q 142.515 406.4375 142.515 410.3375 
L 142.515 427.6275 
Q 142.515 431.5275 146.415 431.5275 
z
" style="fill: #e0ffff; opacity: 0.8; stroke: #000000; stroke-linejoin: miter"/>
    </g>
    <!-- Equilibrium: $\sum F_x = 0$ and $\sum F_y = 0$ -->
    <g transform="translate(146.415 423.5975) scale(0.13 -0.13)">
     <defs>
      <path id="DejaVuSans-45" d="M 628 4666 
L 3578 4666 
L 3578 4134 
L 1259 4134 
L 1259 2753 
L 3481 2753 
L 3481 2222 
L 1259 2222 
L 1259 531 
L 3634 531 
L 3634 0 
L 628 0 
L 628 4666 
z
" transform="scale(0.015625)"/>
      <path id="DejaVuSans-71" d="M 947 1747 
Q 947 1113 1208 752 
Q 1469 391 1925 391 
Q 2381 391 2643 752 
Q 2906 1113 2906 1747 
Q 2906 2381 2643 2742 
Q 2381 3103 1925 3103 
Q 1469 3103 1208 2742 
Q 947 2381 947 1747 
z
M 2906 525 
Q 2725 213 2448 61 
Q 2172 -91 1784 -91 
Q 1150 -91 751 415 
Q 353 922 353 1747 
Q 353 2572 751 3078 
Q 1150 3584 1784 3584 
Q 2172 3584 2448 3432 
Q 2725 3281 2906 2969 
L 2906 3500 
L 3481 3500 
L 3481 -1331 
L 2906 -1331 
L 2906 525 
z
" transform="scale(0.015625)"/>
      <path id="DejaVuSans-75" d="M 544 1381 
L 544 3500 
L 1119 3500 
L 1119 1403 
Q 1119 906 1312 657 
Q 1506 409 1894 409 
Q 2359 409 2629 706 
Q 2900 1003 2900 1516 
L 2900 3500 
L 3475 3500 
L 3475 0 
L 2900 0 
L 2900 538 
Q 2691 219 2414 64 
Q 2138 -91 1772 -91 
Q 1169 -91 856 284 
Q 544 659 544 1381 
z
M 1991 3584 
L 1991 3584 
z
" transform="scale(0.015625)"/>
      <path id="DejaVuSans-6c" d="M 603 4863 
L 1178 4863 
L 1178 0 
L 603 0 
L 603 4863 
z
" transform="scale(0.015625)"/>
      <path id="DejaVuSans-62" d="M 3116 1747 
Q 3116 2381 2855 2742 
Q 2594 3103 2138 3103 
Q 1681 3103 1420 2742 
Q 1159 2381 1159 1747 
Q 1159 1113 1420 752 
Q 1681 391 2138 391 
Q 2594 391 2855 752 
Q 3116 1113 3116 1747 
z
M 1159 2969 
Q 1341 3281 1617 3432 
Q 1894 3584 2278 3584 
Q 2916 3584 3314 3078 
Q 3713 2572 3713 1747 
Q 3713 922 3314 415 
Q 2916 -91 2278 -91 
Q 1894 -91 1617 61 
Q 1341 213 1159 525 
L 1159 0 
L 581 0 
L 581 4863 
L 1159 4863 
L 1159 2969 
z
" transform="scale(0.015625)"/>
      <path id="DejaVuSans-72" d="M 2631 2963 
Q 2534 3019 2420 3045 
Q 2306 3072 2169 3072 
Q 1681 3072 1420 2755 
Q 1159 2438 1159 1844 
L 1159 0 
L 581 0 
L 581 3500 
L 1159 3500 
L 1159 2956 
Q 1341 3275 1631 3429 
Q 1922 3584 2338 3584 
Q 2397 3584 2469 3576 
Q 2541 3569 2628 3553 
L 2631 2963 
z
" transform="scale(0.015625)"/>
      <path id="DejaVuSans-6d" d="M 3328 2828 
Q 3544 3216 3844 3400 
Q 4144 3584 4550 3584 
Q 5097 3584 5394 3201 
Q 5691 2819 5691 2113 
L 5691 0 
L 5113 0 
L 5113 2094 
Q 5113 2597 4934 2840 
Q 4756 3084 4391 3084 
Q 3944 3084 3684 2787 
Q 3425 2491 3425 1978 
L 3425 0 
L 2847 0 
L 2847 2094 
Q 2847 2600 2669 2842 
Q 2491 3084 2119 3084 
Q 1678 3084 1418 2786 
Q 1159 2488 1159 1978 
L 1159 0 
L 581 0 
L 581 3500 
L 1159 3500 
L 1159 2956 
Q 1356 3278 1631 3431 
Q 1906 3584 2284 3584 
Q 2666 3584 2933 3390 
Q 3200 3197 3328 2828 
z
" transform="scale(0.015625)"/>
      <path id="DejaVuSans-3a" d="M 750 794 
L 1409 794 
L 1409 0 
L 750 0 
L 750 794 
z
M 750 3309 
L 1409 3309 
L 1409 2516 
L 750 2516 
L 750 3309 
z
" transform="scale(0.015625)"/>
      <path id="DejaVuSans-20" transform="scale(0.015625)"/>
      <path id="DejaVuSans-61" d="M 2194 1759 
Q 1497 1759 1228 1600 
Q 959 1441 959 1056 
Q 959 750 1161 570 
Q 1363 391 1709 391 
Q 2188 391 2477 730 
Q 2766 1069 2766 1631 
L 2766 1759 
L 2194 1759 
z
M 3341 1997 
L 3341 0 
L 2766 0 
L 2766 531 
Q 2569 213 2275 61 
Q 1981 -91 1556 -91 
Q 1019 -91 701 211 
Q 384 513 384 1019 
Q 384 1609 779 1909 
Q 1175 2209 1959 2209 
L 2766 2209 
L 2766 2266 
Q 2766 2663 2505 2880 
Q 2244 3097 1772 3097 
Q 1472 3097 1187 3025 
Q 903 2953 641 2809 
L 641 3341 
Q 956 3463 1253 3523 
Q 1550 3584 1831 3584 
Q 2591 3584 2966 3190 
Q 3341 2797 3341 1997 
z
" transform="scale(0.015625)"/>
      <path id="DejaVuSans-64" d="M 2906 2969 
L 2906 4863 
L 3481 4863 
L 3481 0 
L 2906 0 
L 2906 525 
Q 2725 213 2448 61 
Q 2172 -91 1784 -91 
Q 1150 -91 751 415 
Q 353 922 353 1747 
Q 353 2572 751 3078 
Q 1150 3584 1784 3584 
Q 2172 3584 2448 3432 
Q 2725 3281 2906 2969 
z
M 947 1747 
Q 947 1113 1208 752 
Q 1469 391 1925 391 
Q 2381 391 2643 752 
Q 2906 1113 2906 1747 
Q 2906 2381 2643 2742 
Q 2381 3103 1925 3103 
Q 1469 3103 1208 2742 
Q 947 2381 947 1747 
z
" transform="scale(0.015625)"/>
     </defs>
     <use xlink:href="#DejaVuSans-45" transform="translate(0 0.296875)"/>
     <use xlink:href="#DejaVuSans-71" transform="translate(63.183594 0.296875)"/>
     <use xlink:href="#DejaVuSans-75" transform="translate(126.660156 0.296875)"/>
     <use xlink:href="#DejaVuSans-69" transform="translate(190.039062 0.296875)"/>
     <use xlink:href="#DejaVuSans-6c" transform="translate(217.822266 0.296875)"/>
     <use xlink:href="#DejaVuSans-69" transform="translate(245.605469 0.296875)"/>
     <use xlink:href="#DejaVuSans-62" transform="translate(273.388672 0.296875)"/>
     <use xlink:href="#DejaVuSans-72" transform="translate(336.865234 0.296875)"/>
     <use xlink:href="#DejaVuSans-69" transform="translate(377.978516 0.296875)"/>
     <use xlink:href="#DejaVuSans-75" transform="translate(405.761719 0.296875)"/>
     <use xlink:href="#DejaVuSans-6d" transform="translate(469.140625 0.296875)"/>
     <use xlink:href="#DejaVuSans-3a" transform="translate(564.802734 0.296875)"/>
     <use xlink:href="#DejaVuSans-20" transform="translate(598.494141 0.296875)"/>
     <use xlink:href="#DejaVuSansDisplay-2211" transform="translate(630.28125 0.296875)"/>
     <use xlink:href="#DejaVuSans-Oblique-46" transform="translate(725.544922 0.296875)"/>
     <use xlink:href="#DejaVuSans-Oblique-78" transform="translate(783.064453 -16.109375) scale(0.7)"/>
     <use xlink:href="#DejaVuSans-3d" transform="translate(846.707031 0.296875)"/>
     <use xlink:href="#DejaVuSans-30" transform="translate(949.978516 0.296875)"/>
     <use xlink:href="#DejaVuSans-20" transform="translate(1013.601562 0.296875)"/>
     <use xlink:href="#DejaVuSans-61" transform="translate(1045.388672 0.296875)"/>
     <use xlink:href="#DejaVuSans-6e" transform="translate(1106.667969 0.296875)"/>
     <use xlink:href="#DejaVuSans-64" transform="translate(1170.046875 0.296875)"/>
     <use xlink:href="#DejaVuSans-20" transform="translate(1233.523438 0.296875)"/>
     <use xlink:href="#DejaVuSansDisplay-2211" transform="translate(1265.310547 0.296875)"/>
     <use xlink:href="#DejaVuSans-Oblique-46" transform="translate(1360.574219 0.296875)"/>
     <use xlink:href="#DejaVuSans-Oblique-79" transform="translate(1418.09375 -16.109375) scale(0.7)"/>
     <use xlink:href="#DejaVuSans-3d" transform="translate(1481.736328 0.296875)"/>
     <use xlink:href="#DejaVuSans-30" transform="translate(1585.007812 0.296875)"/>
    </g>
   </g>
   <g id="text_8">
    <!-- 2D Force Equilibrium -->
    <g transform="translate(159.50875 19.3575) scale(0.16 -0.16)">
     <defs>
      <path id="DejaVuSans-Bold-32" d="M 1844 884 
L 3897 884 
L 3897 0 
L 506 0 
L 506 884 
L 2209 2388 
Q 2438 2594 2547 2791 
Q 2656 2988 2656 3200 
Q 2656 3528 2436 3728 
Q 2216 3928 1850 3928 
Q 1569 3928 1234 3808 
Q 900 3688 519 3450 
L 519 4475 
Q 925 4609 1322 4679 
Q 1719 4750 2100 4750 
Q 2938 4750 3402 4381 
Q 3866 4013 3866 3353 
Q 3866 2972 3669 2642 
Q 3472 2313 2841 1759 
L 1844 884 
z
" transform="scale(0.015625)"/>
      <path id="DejaVuSans-Bold-44" d="M 1791 3756 
L 1791 909 
L 2222 909 
Q 2959 909 3348 1275 
Q 3738 1641 3738 2338 
Q 3738 3031 3350 3393 
Q 2963 3756 2222 3756 
L 1791 3756 
z
M 588 4666 
L 1856 4666 
Q 2919 4666 3439 4514 
Q 3959 4363 4331 4000 
Q 4659 3684 4818 3271 
Q 4978 2859 4978 2338 
Q 4978 1809 4818 1395 
Q 4659 981 4331 666 
Q 3956 303 3431 151 
Q 2906 0 1856 0 
L 588 0 
L 588 4666 
z
" transform="scale(0.015625)"/>
      <path id="DejaVuSans-Bold-20" transform="scale(0.015625)"/>
      <path id="DejaVuSans-Bold-46" d="M 588 4666 
L 3834 4666 
L 3834 3756 
L 1791 3756 
L 1791 2888 
L 3713 2888 
L 3713 1978 
L 1791 1978 
L 1791 0 
L 588 0 
L 588 4666 
z
" transform="scale(0.015625)"/>
      <path id="DejaVuSans-Bold-6f" d="M 2203 2784 
Q 1831 2784 1636 2517 
Q 1441 2250 1441 1747 
Q 1441 1244 1636 976 
Q 1831 709 2203 709 
Q 2569 709 2762 976 
Q 2956 1244 2956 1747 
Q 2956 2250 2762 2517 
Q 2569 2784 2203 2784 
z
M 2203 3584 
Q 3106 3584 3614 3096 
Q 4122 2609 4122 1747 
Q 4122 884 3614 396 
Q 3106 -91 2203 -91 
Q 1297 -91 786 396 
Q 275 884 275 1747 
Q 275 2609 786 3096 
Q 1297 3584 2203 3584 
z
" transform="scale(0.015625)"/>
      <path id="DejaVuSans-Bold-72" d="M 3138 2547 
Q 2991 2616 2845 2648 
Q 2700 2681 2553 2681 
Q 2122 2681 1889 2404 
Q 1656 2128 1656 1613 
L 1656 0 
L 538 0 
L 538 3500 
L 1656 3500 
L 1656 2925 
Q 1872 3269 2151 3426 
Q 2431 3584 2822 3584 
Q 2878 3584 2943 3579 
Q 3009 3575 3134 3559 
L 3138 2547 
z
" transform="scale(0.015625)"/>
      <path id="DejaVuSans-Bold-63" d="M 3366 3391 
L 3366 2478 
Q 3138 2634 2908 2709 
Q 2678 2784 2431 2784 
Q 1963 2784 1702 2511 
Q 1441 2238 1441 1747 
Q 1441 1256 1702 982 
Q 1963 709 2431 709 
Q 2694 709 2930 787 
Q 3166 866 3366 1019 
L 3366 103 
Q 3103 6 2833 -42 
Q 2563 -91 2291 -91 
Q 1344 -91 809 395 
Q 275 881 275 1747 
Q 275 2613 809 3098 
Q 1344 3584 2291 3584 
Q 2566 3584 2833 3536 
Q 3100 3488 3366 3391 
z
" transform="scale(0.015625)"/>
      <path id="DejaVuSans-Bold-65" d="M 4031 1759 
L 4031 1441 
L 1416 1441 
Q 1456 1047 1700 850 
Q 1944 653 2381 653 
Q 2734 653 3104 758 
Q 3475 863 3866 1075 
L 3866 213 
Q 3469 63 3072 -14 
Q 2675 -91 2278 -91 
Q 1328 -91 801 392 
Q 275 875 275 1747 
Q 275 2603 792 3093 
Q 1309 3584 2216 3584 
Q 3041 3584 3536 3087 
Q 4031 2591 4031 1759 
z
M 2881 2131 
Q 2881 2450 2695 2645 
Q 2509 2841 2209 2841 
Q 1884 2841 1681 2658 
Q 1478 2475 1428 2131 
L 2881 2131 
z
" transform="scale(0.015625)"/>
      <path id="DejaVuSans-Bold-45" d="M 588 4666 
L 3834 4666 
L 3834 3756 
L 1791 3756 
L 1791 2888 
L 3713 2888 
L 3713 1978 
L 1791 1978 
L 1791 909 
L 3903 909 
L 3903 0 
L 588 0 
L 588 4666 
z
" transform="scale(0.015625)"/>
      <path id="DejaVuSans-Bold-71" d="M 2181 2772 
Q 1825 2772 1636 2509 
Q 1447 2247 1447 1747 
Q 1447 1247 1636 984 
Q 1825 722 2181 722 
Q 2541 722 2730 984 
Q 2919 1247 2919 1747 
Q 2919 2247 2730 2509 
Q 2541 2772 2181 2772 
z
M 2919 506 
Q 2688 197 2409 53 
Q 2131 -91 1766 -91 
Q 1119 -91 703 423 
Q 288 938 288 1747 
Q 288 2556 703 3067 
Q 1119 3578 1766 3578 
Q 2131 3578 2409 3434 
Q 2688 3291 2919 2981 
L 2919 3500 
L 4044 3500 
L 4044 -1331 
L 2919 -1331 
L 2919 506 
z
" transform="scale(0.015625)"/>
      <path id="DejaVuSans-Bold-75" d="M 500 1363 
L 500 3500 
L 1625 3500 
L 1625 3150 
Q 1625 2866 1622 2436 
Q 1619 2006 1619 1863 
Q 1619 1441 1641 1255 
Q 1663 1069 1716 984 
Q 1784 875 1895 815 
Q 2006 756 2150 756 
Q 2500 756 2700 1025 
Q 2900 1294 2900 1772 
L 2900 3500 
L 4019 3500 
L 4019 0 
L 2900 0 
L 2900 506 
Q 2647 200 2364 54 
Q 2081 -91 1741 -91 
Q 1134 -91 817 281 
Q 500 653 500 1363 
z
" transform="scale(0.015625)"/>
      <path id="DejaVuSans-Bold-69" d="M 538 3500 
L 1656 3500 
L 1656 0 
L 538 0 
L 538 3500 
z
M 538 4863 
L 1656 4863 
L 1656 3950 
L 538 3950 
L 538 4863 
z
" transform="scale(0.015625)"/>
      <path id="DejaVuSans-Bold-6c" d="M 538 4863 
L 1656 4863 
L 1656 0 
L 538 0 
L 538 4863 
z
" transform="scale(0.015625)"/>
      <path id="DejaVuSans-Bold-62" d="M 2400 722 
Q 2759 722 2948 984 
Q 3138 1247 3138 1747 
Q 3138 2247 2948 2509 
Q 2759 2772 2400 2772 
Q 2041 2772 1848 2508 
Q 1656 2244 1656 1747 
Q 1656 1250 1848 986 
Q 2041 722 2400 722 
z
M 1656 2988 
Q 1888 3294 2169 3439 
Q 2450 3584 2816 3584 
Q 3463 3584 3878 3070 
Q 4294 2556 4294 1747 
Q 4294 938 3878 423 
Q 3463 -91 2816 -91 
Q 2450 -91 2169 54 
Q 1888 200 1656 506 
L 1656 0 
L 538 0 
L 538 4863 
L 1656 4863 
L 1656 2988 
z
" transform="scale(0.015625)"/>
      <path id="DejaVuSans-Bold-6d" d="M 3781 2919 
Q 3994 3244 4286 3414 
Q 4578 3584 4928 3584 
Q 5531 3584 5847 3212 
Q 6163 2841 6163 2131 
L 6163 0 
L 5038 0 
L 5038 1825 
Q 5041 1866 5042 1909 
Q 5044 1953 5044 2034 
Q 5044 2406 4934 2573 
Q 4825 2741 4581 2741 
Q 4263 2741 4089 2478 
Q 3916 2216 3909 1719 
L 3909 0 
L 2784 0 
L 2784 1825 
Q 2784 2406 2684 2573 
Q 2584 2741 2328 2741 
Q 2006 2741 1831 2477 
Q 1656 2213 1656 1722 
L 1656 0 
L 531 0 
L 531 3500 
L 1656 3500 
L 1656 2988 
Q 1863 3284 2130 3434 
Q 2397 3584 2719 3584 
Q 3081 3584 3359 3409 
Q 3638 3234 3781 2919 
z
" transform="scale(0.015625)"/>
     </defs>
     <use xlink:href="#DejaVuSans-Bold-32"/>
     <use xlink:href="#DejaVuSans-Bold-44" transform="translate(69.580078 0)"/>
     <use xlink:href="#DejaVuSans-Bold-20" transform="translate(152.587891 0)"/>
     <use xlink:href="#DejaVuSans-Bold-46" transform="translate(187.402344 0)"/>
     <use xlink:href="#DejaVuSans-Bold-6f" transform="translate(251.712891 0)"/>
     <use xlink:href="#DejaVuSans-Bold-72" transform="translate(320.414062 0)"/>
     <use xlink:href="#DejaVuSans-Bold-63" transform="translate(369.730469 0)"/>
     <use xlink:href="#DejaVuSans-Bold-65" transform="translate(429.007812 0)"/>
     <use xlink:href="#DejaVuSans-Bold-20" transform="translate(496.830078 0)"/>
     <use xlink:href="#DejaVuSans-Bold-45" transform="translate(531.644531 0)"/>
     <use xlink:href="#DejaVuSans-Bold-71" transform="translate(599.955078 0)"/>
     <use xlink:href="#DejaVuSans-Bold-75" transform="translate(671.537109 0)"/>
     <use xlink:href="#DejaVuSans-Bold-69" transform="translate(742.728516 0)"/>
     <use xlink:href="#DejaVuSans-Bold-6c" transform="translate(777.005859 0)"/>
     <use xlink:href="#DejaVuSans-Bold-69" transform="translate(811.283203 0)"/>
     <use xlink:href="#DejaVuSans-Bold-62" transform="translate(845.560547 0)"/>
     <use xlink:href="#DejaVuSans-Bold-72" transform="translate(917.142578 0)"/>
     <use xlink:href="#DejaVuSans-Bold-69" transform="translate(966.458984 0)"/>
     <use xlink:href="#DejaVuSans-Bold-75" transform="translate(1000.736328 0)"/>
     <use xlink:href="#DejaVuSans-Bold-6d" transform="translate(1071.927734 0)"/>
    </g>
   </g>
   <g id="patch_8">
    <path d="M 253.6 258.5095 
C 255.560381 258.5095 257.440734 257.730632 258.826933 256.344433 
C 260.213132 254.958234 260.992 253.077881 260.992 251.1175 
C 260.992 249.157119 260.213132 247.276766 258.826933 245.890567 
C 257.440734 244.504368 255.560381 243.7255 253.6 243.7255 
C 251.639619 243.7255 249.759266 244.504368 248.373067 245.890567 
C 246.986868 247.276766 246.208 249.157119 246.208 251.1175 
C 246.208 253.077881 246.986868 254.958234 248.373067 256.344433 
C 249.759266 257.730632 251.639619 258.5095 253.6 258.5095 
z
" clip-path="url(#p931d5aff78)" style="fill: #add8e6; stroke: #000000; stroke-width: 1.5; stroke-linejoin: miter"/>
   </g>
   <g id="patch_9">
    <path d="M 255.328964 250.119282 
Q 306.945157 220.318659 356.624859 191.63607 
" style="fill: none; stroke: #dc2626; stroke-width: 2; stroke-linecap: round"/>
    <path d="M 352.160757 191.904019 
L 356.624859 191.63607 
L 354.160757 195.368121 
" style="fill: none; stroke: #dc2626; stroke-width: 2; stroke-linecap: round"/>
   </g>
   <g id="patch_10">
    <path d="M 251.597528 251.1175 
Q 200.250018 251.1175 151.138577 251.1175 
" style="fill: none; stroke: #2563eb; stroke-width: 2; stroke-linecap: round"/>
    <path d="M 155.138577 253.1175 
L 151.138577 251.1175 
L 155.138577 249.1175 
" style="fill: none; stroke: #2563eb; stroke-width: 2; stroke-linecap: round"/>
   </g>
   <g id="patch_11">
    <path d="M 253.6 253.113936 
Q 253.6 281.917111 253.6 308.484218 
" style="fill: none; stroke: #16a34a; stroke-width: 2; stroke-linecap: round"/>
    <path d="M 255.6 304.484218 
L 253.6 308.484218 
L 251.6 304.484218 
" style="fill: none; stroke: #16a34a; stroke-width: 2; stroke-linecap: round"/>
   </g>
   <g id="text_9">
    <!-- $\vec{F}_1$ -->
    <g style="fill: #dc2626" transform="translate(315.371165 210.417875) scale(0.12 -0.12)">
     <defs>
      <path id="DejaVuSans-20d7" d="M -3009 4066 
L -3009 4378 
L -694 4378 
L -1106 4863 
L -713 4863 
L -166 4222 
L -713 3581 
L -1106 3581 
L -694 4066 
L -3009 4066 
z
" transform="scale(0.015625)"/>
     </defs>
     <use xlink:href="#DejaVuSans-20d7" transform="translate(60.395508 30.015625)"/>
     <use xlink:href="#DejaVuSans-Oblique-46" transform="translate(0 0.5625)"/>
     <use xlink:href="#DejaVuSans-31" transform="translate(58.476562 -15.84375) scale(0.7)"/>
    </g>
   </g>
   <g id="text_10">
    <!-- $\vec{F}_2$ -->
    <g style="fill: #2563eb" transform="translate(179.108835 241.217875) scale(0.12 -0.12)">
     <use xlink:href="#DejaVuSans-20d7" transform="translate(60.395508 30.015625)"/>
     <use xlink:href="#DejaVuSans-Oblique-46" transform="translate(0 0.5625)"/>
     <use xlink:href="#DejaVuSans-32" transform="translate(58.476562 -15.84375) scale(0.7)"/>
    </g>
   </g>
   <g id="text_11">
    <!-- $\vec{F}_3$ -->
    <g style="fill: #16a34a" transform="translate(266.952 296.717875) scale(0.12 -0.12)">
     <use xlink:href="#DejaVuSans-20d7" transform="translate(60.395508 30.015625)"/>
     <use xlink:href="#DejaVuSans-Oblique-46" transform="translate(0 0.5625)"/>
     <use xlink:href="#DejaVuSans-33" transform="translate(58.476562 -15.84375) scale(0.7)"/>
    </g>
   </g>
  </g>
 </g>
 <defs>
  <clipPath id="p931d5aff78">
   <rect x="7.2" y="29.3575" width="492.8" height="443.52"/>
  </clipPath>
 </defs>
</svg>
